<svg width="500" height="500" viewBox="0 0 500 500" fill="none" xmlns="http://www.w3.org/2000/svg">
<g clip-path="url(#clip0_15_2)">
<circle cx="250" cy="250" r="250" fill="#080808"/>
<path fill-rule="evenodd" clip-rule="evenodd" d="M342.857 355.246C393.019 330.424 429.286 285.115 429.286 226.428C429.286 135.301 341.841 70.7141 250.714 70.7141C159.587 70.7141 72.1429 135.301 72.1429 226.428C72.1429 281.138 103.661 324.221 148.571 349.919V407.143C148.571 418.188 157.526 427.143 168.571 427.143H322.857C333.903 427.143 342.857 418.188 342.857 407.143V355.246Z" fill="white"/>
<ellipse cx="184.152" cy="231.585" rx="50.2232" ry="49.6652" fill="#080808"/>
<ellipse cx="322.545" cy="232.701" rx="50.2232" ry="49.6652" fill="#080808"/>
<rect x="184.152" y="386.161" width="18.9732" height="41.2946" fill="#080808"/>
<rect x="239.955" y="386.161" width="18.9732" height="41.2946" fill="#080808"/>
<rect x="295.759" y="386.161" width="18.9732" height="41.2946" fill="#080808"/>
<path d="M306.028 252.73L320.611 258.991L320.61 276.257L293.72 265.153L306.028 252.73Z" fill="#E42121"/>
<path d="M325.176 258.718L339.871 252.726L352.169 264.846L325.385 276.203L325.176 258.718Z" fill="#E42121"/>
<path d="M342.881 249.282L348.929 234.61L366.193 234.359L355.481 261.407L342.881 249.282Z" fill="#E42121"/>
<path d="M349.662 230.407L343.457 215.8L355.397 203.328L367.143 229.944L349.662 230.407Z" fill="#E42121"/>
<path d="M340.044 212.603L325.449 206.368L325.419 189.102L352.329 200.159L340.044 212.603Z" fill="#E42121"/>
<path d="M320.774 206.629L305.99 212.398L293.877 200.094L320.829 189.142L320.774 206.629Z" fill="#E42121"/>
<path d="M302.743 215.571L296.409 230.122L279.143 230.035L290.383 203.201L302.743 215.571Z" fill="#E42121"/>
<path d="M296.861 234.713L302.712 249.466L290.475 261.647L279.375 234.755L296.861 234.713Z" fill="#E42121"/>
<path d="M322.842 209.978L338.4 216.684L344.844 232.875L338.4 249.065L322.842 255.771L307.284 249.065L300.84 232.875L307.284 216.684L322.842 209.978Z" fill="#E42121"/>
<path d="M276 307.154C276 319.459 265.113 317.216 253.5 310.748C242.613 317.216 231 319.459 231 307.154C231 294.85 242.613 286.312 253.5 282C265.113 287.031 276 294.85 276 307.154Z" fill="#080808"/>
</g>
<defs>
<clipPath id="clip0_15_2">
<rect width="500" height="500" fill="white"/>
</clipPath>
</defs>
</svg>
