<svg xmlns="http://www.w3.org/2000/svg" x="0px" y="0px" width="100" height="100" viewBox="0 0 50 50">
  <path d="M 25 2 C 20.720167 2 17.153108 3.83308 14.730469 6.7558594 C 12.30783 9.6786388 11 13.656809 11 18 C 11 22.343191 12.30783 26.321361 14.730469 29.244141 C 17.153108 32.16692 20.720167 34 25 34 C 29.279833 34 32.846892 32.16692 35.269531 29.244141 C 35.93442 28.441989 36.50704 27.554291 37 26.607422 L 37 36 C 37 38.818021 36.089771 41.275395 34.242188 43.058594 C 32.394602 44.841793 29.556863 46 25.5 46 C 17.392157 46 14 41.466667 14 37 L 12 37 C 12 42.533333 16.607843 48 25.5 48 C 29.943137 48 33.355397 46.696098 35.632812 44.498047 C 37.910228 42.299996 39 39.256979 39 36 L 39 18 L 39 3 L 37 3 L 37 9.3925781 C 36.50704 8.4457095 35.93442 7.5580113 35.269531 6.7558594 C 32.846892 3.83308 29.279833 2 25 2 z M 25 4 C 28.720167 4 31.653108 5.5250294 33.730469 8.03125 C 35.80783 10.537471 37 14.059191 37 18 C 37 21.940809 35.80783 25.462529 33.730469 27.96875 C 31.653108 30.474971 28.720167 32 25 32 C 21.279833 32 18.346892 30.474971 16.269531 27.96875 C 14.19217 25.462529 13 21.940809 13 18 C 13 14.059191 14.19217 10.537471 16.269531 8.03125 C 18.346892 5.5250294 21.279833 4 25 4 z"></path>
</svg>
