<?xml version="1.0" ?><svg height="60px" version="1.1" viewBox="0 0 60 60" width="60px" xmlns="http://www.w3.org/2000/svg" xmlns:sketch="http://www.bohemiancoding.com/sketch/ns" xmlns:xlink="http://www.w3.org/1999/xlink"><title/><defs/><g fill="none" fill-rule="evenodd" id="flat" stroke="none" stroke-width="1"><g id="goodreads"><path d="M30,60 C46.5685433,60 60,46.5685433 60,30 C60,13.4314567 46.5685433,0 30,0 C13.4314567,0 0,13.4314567 0,30 C0,46.5685433 13.4314567,60 30,60 Z" fill="#CE6F2D" id="goodread"/><path d="M29.8990615,37.0028068 C33.9449077,36.9716533 36.8218615,35.0982126 38.5286769,31.3821 L38.6184,31.3821 L38.6184,37.0493448 C38.6184,37.4716478 38.5884923,38.1266405 38.5286769,39.0166306 C38.4069692,39.9381588 38.0821385,40.9293016 37.5546,41.9912129 C37.0258154,42.9904326 36.1722,43.841577 34.9954154,44.5438769 C33.8319231,45.309253 32.2086,45.7069409 30.1246154,45.738479 C28.1162308,45.738479 26.4181385,45.2542536 25.0282615,44.2861874 C23.6080615,43.3338903 22.7777077,41.7877536 22.5372,39.6493159 L20.7705692,39.6493159 C20.9516769,42.4281311 21.9095538,44.411186 23.6462769,45.5977113 C25.3368923,46.7369294 27.4815231,47.3076923 30.0793385,47.3076923 C32.646,47.3076923 34.6473231,46.8626973 36.0816462,45.9723225 C37.5006,45.1138705 38.5191231,44.0438824 39.1392923,42.7638966 C39.7582154,41.4835263 40.1279077,40.2654629 40.2483692,39.1104757 C40.3397538,37.9551039 40.3846154,37.1278054 40.3846154,36.627811 L40.3846154,13.2546091 L38.6175692,13.2546091 L38.6175692,18.4068596 L38.5278462,18.4068596 C37.8482769,16.5180344 36.7234154,15.0895887 35.1524308,14.121138 C33.5673231,13.1688409 31.8152308,12.6923077 29.8982308,12.6923077 C26.5597846,12.7549993 24.0234462,13.9492168 22.2879692,16.2757294 C20.5055538,18.5860884 19.6153846,21.4360567 19.6153846,24.824096 C19.6153846,28.3059804 20.4602769,31.186333 22.1513077,33.465923 C23.8593692,35.7932049 26.4405692,36.9720379 29.8990615,37.0028068 L29.8990615,37.0028068 Z M23.5116923,17.5411 C24.8999077,15.4330465 27.0291692,14.3403663 29.8990615,14.2622902 C32.8433077,14.3407509 35.0244923,15.4022776 36.4446923,17.4476395 C37.8636462,19.493386 38.5739538,21.9522048 38.5739538,24.8252498 C38.5739538,27.6982948 37.8636462,30.1413446 36.4446923,32.155553 C35.0244923,34.29476 32.8433077,35.3874401 29.8990615,35.4339781 C27.1205538,35.3870555 25.0058308,34.3255289 23.5565538,32.2490135 C22.0914923,30.2351897 21.3595846,27.7602172 21.3595846,24.8252498 C21.3595846,22.0768188 22.0769538,19.6487689 23.5116923,17.5411 L23.5116923,17.5411 Z" fill="#FFFFFF"/></g></g></svg>