<svg width="400" height="400" viewBox="0 0 400 400" fill="none" xmlns="http://www.w3.org/2000/svg">
<g clip-path="url(#clip0_3_81)">
<rect y="199.921" width="282.787" height="282.898" rx="20" transform="rotate(-45 0 199.921)" fill="#B7B6B6"/>
<path d="M231.066 84.0516C234.142 78.7046 241.858 78.7046 244.934 84.0516L280.465 145.805C283.534 151.138 279.684 157.794 273.531 157.794H202.469C196.316 157.794 192.466 151.138 195.535 145.805L231.066 84.0516Z" fill="#1B1B1B"/>
<path fill-rule="evenodd" clip-rule="evenodd" d="M257 159.978C257 153.069 252.79 147.467 247.596 147.467H231.139C225.945 147.467 221.734 153.069 221.734 159.978V201.89C221.734 254.794 196.84 280.084 180.826 280.084C166.131 280.084 143.957 258.787 140.406 214.396C139.856 207.525 135.708 201.89 130.514 201.89H114.057C108.863 201.89 104.612 207.503 105.028 214.39C108.847 277.618 141.325 327 180.826 327C222.896 327 257 270.986 257 201.89V159.978Z" fill="#1B1B1B"/>
</g>
<defs>
<clipPath id="clip0_3_81">
<rect width="400" height="400" fill="white"/>
</clipPath>
</defs>
</svg>
