<?xml version="1.0" standalone="no"?>
<!DOCTYPE svg PUBLIC "-//W3C//DTD SVG 20010904//EN"
 "http://www.w3.org/TR/2001/REC-SVG-20010904/DTD/svg10.dtd">
<svg version="1.0" xmlns="http://www.w3.org/2000/svg"
 width="800.000000pt" height="800.000000pt" viewBox="0 0 800.000000 800.000000"
 preserveAspectRatio="xMidYMid meet">
<metadata>
Created by potrace 1.14, written by Peter Selinger 2001-2017
</metadata>
<g transform="translate(0.000000,800.000000) scale(0.100000,-0.100000)"
fill="#000000" stroke="none">
<path d="M3955 7031 c-11 -5 -27 -17 -37 -27 -34 -39 -1403 -2323 -1443 -2409
-54 -114 -98 -247 -127 -378 -19 -88 -22 -132 -22 -317 0 -185 3 -229 22 -318
79 -363 254 -666 519 -898 465 -406 1095 -535 1685 -344 122 40 313 134 413
204 365 256 592 598 687 1036 19 90 22 134 22 315 0 181 -3 225 -22 315 -31
141 -81 289 -135 396 -25 49 -358 609 -740 1244 -499 829 -703 1160 -724 1172
-30 19 -65 22 -98 9z m-857 -2423 c20 -20 14 -49 -28 -128 -49 -96 -94 -228
-116 -345 -22 -122 -15 -375 15 -485 62 -231 153 -394 315 -567 42 -44 76 -90
76 -100 0 -30 -35 -57 -63 -49 -14 3 -63 46 -109 95 -329 345 -442 843 -293
1295 30 94 86 217 122 273 17 25 61 31 81 11z"/>
<path d="M2170 1160 l0 -200 1830 0 1830 0 0 200 0 200 -1830 0 -1830 0 0
-200z"/>
</g>
</svg>
